<?xml version="1.0" encoding="iso-8859-1"?>
<!-- Generator: Adobe Illustrator 19.0.0, SVG Export Plug-In . SVG Version: 6.00 Build 0)  -->
<svg version="1.1" id="Capa_1" xmlns="http://www.w3.org/2000/svg" xmlns:xlink="http://www.w3.org/1999/xlink" x="0px" y="0px"
	 viewBox="0 0 512 512" style="enable-background:new 0 0 512 512;" xml:space="preserve">
<g>
	<g>
		<path d="M372.406,349.853c-7.629-3.233-16.432,0.332-19.663,7.96C336.223,396.805,298.249,422,256,422
			c-42.249,0-80.223-25.195-96.743-64.188c-3.232-7.628-12.035-11.191-19.663-7.96c-7.628,3.232-11.192,12.036-7.96,19.663
			C152.864,419.623,201.68,452,256,452s103.136-32.377,124.366-82.484C383.598,361.888,380.034,353.085,372.406,349.853z"/>
	</g>
</g>
<g>
	<g>
		<path d="M451,242c0-13.337,0-213.342,0-227c0-4.719-2.22-9.162-5.994-11.995c-3.773-2.833-8.66-3.726-13.19-2.409
			c0,0-220.914,63.013-226.68,64.55C195.46,44.968,174.832,31,151,31c-10.574,0-20.898,2.854-30,8.184
			C111.899,33.854,101.574,31,91,31c-33.084,0-60,26.916-60,60c0,10.574,2.854,20.898,8.184,30C33.854,130.102,31,140.427,31,151
			c0,24.683,14.986,45.926,36.334,55.126c-2.949,11.621-4.892,23.706-5.776,35.874H61c-32.895,0-61,26.584-61,60
			c0,33.424,28.112,60,61,60h5.25C86.62,447.9,163.961,512,256,512s169.38-64.1,189.75-150H451c32.895,0,61-26.584,61-60
			C512,268.576,483.888,242,451,242z M61,332c-16.804,0-31-13.738-31-30c0-16.262,14.196-30,31-30v45c0,5.046,0.193,10.049,0.571,15
			H61z M294.092,71.841C298.535,77.17,301,83.878,301,91c0,15.755-12.21,28.702-27.663,29.9
			c-9.327-11.074-17.796-22.988-25.271-35.69L294.092,71.841z M61,151c0-9.32,4.254-15.999,7.823-19.961
			c5.141-5.705,5.141-14.372,0-20.078C65.255,106.999,61,100.32,61,91c0-16.542,13.458-30,30-30c9.32,0,15.999,4.254,19.96,7.823
			c5.706,5.14,14.373,5.14,20.079,0C135.002,65.255,141.68,61,151,61c16.542,0,30,13.458,30,30s-13.458,30-30,30
			c-4.386,0-8.801-1.078-13.124-3.205c-5.763-2.835-12.689-1.688-17.229,2.852c-4.541,4.541-5.688,11.468-2.853,17.229
			C119.922,142.199,121,146.614,121,151c0,16.542-13.458,30-30,30S61,167.542,61,151z M421,317.001C421,407.982,346.982,482,256,482
			c-90.981,0-165-74.019-165-165v-60c0-15.699,2.11-31.513,6.145-46.313C127.354,207.6,151,182.01,151,151
			c31.852,0,57.976-24.952,59.877-56.335c2.343-0.657,4.701-1.26,7.072-1.808c19.498,35.353,46.335,66.359,77.794,90.387
			c34.813,26.59,75.918,45.186,118.874,53.777l6.383,1.277V317.001z M421,151c-16.542,0-30-13.458-30-30s13.458-30,30-30V151z
			 M421,61c-33.084,0-60,26.916-60,60s26.916,60,60,60v26.703l-0.5-0.1c-47.095-9.419-89.547-31.139-123.806-62.395
			C316.957,135.565,331,114.894,331,91c0-9.919-2.406-19.427-6.851-27.89L421,34.978V61z M451,332h-0.571
			c0.378-4.951,0.571-9.953,0.571-15v-45c16.804,0,31,13.738,31,30C482,318.262,467.804,332,451,332z"/>
	</g>
</g>
<g>
	<g>
		<path d="M256,302c-24.813,0-45,20.187-45,45s20.187,45,45,45s45-20.187,45-45S280.813,302,256,302z M256,362
			c-8.271,0-15-6.729-15-15s6.729-15,15-15s15,6.729,15,15S264.271,362,256,362z"/>
	</g>
</g>
<g>
	<g>
		<path d="M196,272h-15v-15c0-8.284-6.716-15-15-15s-15,6.716-15,15v15h-15c-8.284,0-15,6.716-15,15s6.716,15,15,15h15v15
			c0,8.284,6.716,15,15,15s15-6.716,15-15v-15h15c8.284,0,15-6.716,15-15S204.284,272,196,272z"/>
	</g>
</g>
<g>
	<g>
		<path d="M376,272h-15v-15c0-8.284-6.716-15-15-15s-15,6.716-15,15v15h-15c-8.284,0-15,6.716-15,15s6.716,15,15,15h15v15
			c0,8.284,6.716,15,15,15s15-6.716,15-15v-15h15c8.284,0,15-6.716,15-15S384.284,272,376,272z"/>
	</g>
</g>
<g>
</g>
<g>
</g>
<g>
</g>
<g>
</g>
<g>
</g>
<g>
</g>
<g>
</g>
<g>
</g>
<g>
</g>
<g>
</g>
<g>
</g>
<g>
</g>
<g>
</g>
<g>
</g>
<g>
</g>
</svg>
