<svg width="491" height="491" viewBox="0 0 491 491" fill="none" xmlns="http://www.w3.org/2000/svg">
<g clip-path="url(#clip0)">
<path d="M245.333 0C109.839 0 0 109.839 0 245.333C0 380.827 109.839 490.666 245.333 490.666C380.827 490.666 490.666 380.827 490.666 245.333C490.514 109.903 380.764 0.153 245.333 0Z" fill="#2E88E4"/>
<path d="M373.333 192H249.749L268.949 172.8C287.842 153.919 287.851 123.297 268.97 104.405C268.963 104.398 268.956 104.391 268.949 104.384C249.77 86.1369 219.632 86.2029 200.533 104.533L82.219 222.699C69.727 235.195 69.727 255.451 82.219 267.947L200.534 386.134C218.099 406.271 248.664 408.356 268.801 390.79C288.938 373.225 291.023 342.66 273.457 322.523C272.012 320.867 270.457 319.311 268.801 317.867L249.601 298.667H373.334C402.789 298.667 426.667 274.789 426.667 245.334C426.667 215.879 402.789 192 373.333 192Z" fill="#FAFAFA"/>
</g>
<defs>
<clipPath id="clip0">
<rect width="490.667" height="490.667" fill="white"/>
</clipPath>
</defs>
</svg>
