<svg width="491" height="491" viewBox="0 0 491 491" fill="none" xmlns="http://www.w3.org/2000/svg">
<g clip-path="url(#clip0)">
<path d="M245.334 490.667C380.828 490.667 490.667 380.828 490.667 245.334C490.667 109.84 380.828 0.000997478 245.334 0.000985632C109.84 0.000973787 0.00102511 109.84 0.00101327 245.334C0.153001 380.764 109.903 490.514 245.334 490.667Z" fill="#2E88E4"/>
<path d="M117.334 298.667L240.918 298.667L221.718 317.867C202.825 336.748 202.816 367.37 221.697 386.262C221.704 386.269 221.711 386.276 221.718 386.283C240.897 404.53 271.035 404.464 290.134 386.134L408.448 267.968C420.94 255.472 420.94 235.216 408.448 222.72L290.133 104.533C272.568 84.396 242.003 82.311 221.866 99.877C201.729 117.442 199.644 148.007 217.21 168.144C218.655 169.8 220.21 171.356 221.866 172.8L241.066 192L117.333 192C87.878 192 64 215.878 64 245.333C64 274.788 87.878 298.667 117.334 298.667Z" fill="#FAFAFA"/>
</g>
<defs>
<clipPath id="clip0">
<rect width="490.667" height="490.667" fill="white" transform="translate(490.667 490.667) rotate(-180)"/>
</clipPath>
</defs>
</svg>
